<?xml version="1.0" encoding="utf-8"?>
<!-- Generator: Adobe Illustrator 23.0.1, SVG Export Plug-In . SVG Version: 6.00 Build 0)  -->
<svg version="1.1" id="Calque_1" xmlns="http://www.w3.org/2000/svg" xmlns:xlink="http://www.w3.org/1999/xlink" x="0px" y="0px"
	 viewBox="0 0 700 700" style="enable-background:new 0 0 700 700;" xml:space="preserve">
<g>
	<path d="M179.9,280v14.7h15.5l0,104.7h82V280h-82L179.9,280z M217.9,297h45.5v42.7h-45.5V297z"/>
	<path d="M292.9,310.5v89l199.5,0c8.9,0,16.1-19.9,16.1-44.5c0-24.6-7.2-44.5-16.1-44.5h-11.5v-37h-33.5v37L292.9,310.5z"/>
	<path d="M436.1,460.1c0-5.7,4.6-10.3,10.3-10.3s10.3,4.6,10.3,10.3s-4.6,10.3-10.3,10.3S436.1,465.8,436.1,460.1"/>
	<path d="M350.1,460.1c0-5.7,4.6-10.3,10.3-10.3c5.7,0,10.3,4.6,10.3,10.3s-4.6,10.3-10.3,10.3C354.7,470.4,350.1,465.8,350.1,460.1
		"/>
	<path d="M195.4,412.1l0,46h43.3c0,0.7-0.1,1.3-0.1,2c0,19.5,15.8,35.3,35.3,35.3c19.5,0,35.3-15.8,35.3-35.3c0-0.7-0.1-1.3-0.1-2
		h16c0,0.7-0.1,1.3-0.1,2c0,19.5,15.8,35.3,35.3,35.3s35.3-15.8,35.3-35.3c0-0.7-0.1-1.3-0.1-2h15.5c0,0.7-0.1,1.3-0.1,2
		c0,19.5,15.8,35.3,35.3,35.3c14.8,0,27.4-9.1,32.7-22H533v-44.7h-29.7v-16.7H195.4L195.4,412.1z M420.1,460.1
		c0-14.5,11.8-26.3,26.3-26.3c14.5,0,26.3,11.8,26.3,26.3c0,14.5-11.8,26.3-26.3,26.3C431.8,486.4,420.1,474.7,420.1,460.1z
		 M334.1,460.1c0-14.5,11.8-26.3,26.3-26.3c14.5,0,26.3,11.8,26.3,26.3c0,14.5-11.8,26.3-26.3,26.3S334.1,474.7,334.1,460.1z
		 M247.6,460.1c0-14.5,11.8-26.3,26.3-26.3c14.5,0,26.3,11.8,26.3,26.3c0,14.5-11.8,26.3-26.3,26.3
		C259.4,486.4,247.6,474.7,247.6,460.1z"/>
	<path d="M263.6,460.1c0-5.7,4.6-10.3,10.3-10.3c5.7,0,10.3,4.6,10.3,10.3c0,5.7-4.6,10.3-10.3,10.3
		C268.2,470.4,263.6,465.8,263.6,460.1"/>
	<path d="M323.1,105.1c-16,5.6-27.7,22.6-27.7,42.7c0,24.7,17.6,44.7,39.2,44.7c3.6,0,7.1-0.6,10.5-1.6c-0.4,1.3-0.7,2.7-0.9,4.1
		c-1.9,17.4,15.4,33.6,38.5,36.1c2.6,0.3,5.1,0.3,7.6,0.3v0c0,0,40-1.8,58,30.9h31.2c0-46-39.9-70.6-53.3-70.3
		c-0.4-1.1-0.9-2.2-1.5-3.2c0-0.1,0.1-0.3,0.1-0.4c1.9-17.5-11.9-33.3-30.8-35.3c-1.7-0.2-3.3-0.2-4.9-0.2c0.9-8-0.3-16.5-3.8-24.6
		c-5.7-13.1-16.1-22.4-27.8-26.3c6.2-6.2,10.2-15.4,10.2-25.8c0-18.8-13.1-34-29.3-34c-16.2,0-29.3,15.2-29.3,34
		C309.2,88.4,314.7,99.1,323.1,105.1L323.1,105.1z"/>
</g>
</svg>
