<svg xmlns="http://www.w3.org/2000/svg" xmlns:xlink="http://www.w3.org/1999/xlink" viewBox="0 0 375.4 219.49"><defs><style>.cls-1{fill:#214b60;}.cls-2{fill:url(#Áåçûìÿííûé_ãðàäèåíò_40);}.cls-3{fill:url(#Áåçûìÿííûé_ãðàäèåíò_40-2);}.cls-4{fill:url(#Áåçûìÿííûé_ãðàäèåíò_40-3);}.cls-5{fill:url(#Áåçûìÿííûé_ãðàäèåíò_40-4);}.cls-6{fill:url(#Áåçûìÿííûé_ãðàäèåíò_40-5);}.cls-7{fill:url(#Áåçûìÿííûé_ãðàäèåíò_40-6);}</style><linearGradient id="Áåçûìÿííûé_ãðàäèåíò_40" x1="283.76" y1="-8.67" x2="178.38" y2="121.23" gradientUnits="userSpaceOnUse"><stop offset="0" stop-color="#bc7339"/><stop offset="0.18" stop-color="#fceeaf"/><stop offset="0.52" stop-color="#e19f5c"/><stop offset="0.75" stop-color="#fde9a4"/><stop offset="0.83" stop-color="#f1d693"/><stop offset="0.92" stop-color="#e1bd7c"/><stop offset="1" stop-color="#d18b4b"/></linearGradient><linearGradient id="Áåçûìÿííûé_ãðàäèåíò_40-2" x1="172.03" y1="-71.23" x2="364.9" y2="209.8" xlink:href="#Áåçûìÿííûé_ãðàäèåíò_40"/><linearGradient id="Áåçûìÿííûé_ãðàäèåíò_40-3" x1="-69.66" y1="94.65" x2="123.21" y2="375.67" xlink:href="#Áåçûìÿííûé_ãðàäèåíò_40"/><linearGradient id="Áåçûìÿííûé_ãðàäèåíò_40-4" x1="24.46" y1="30.05" x2="217.34" y2="311.07" xlink:href="#Áåçûìÿííûé_ãðàäèåíò_40"/><linearGradient id="Áåçûìÿííûé_ãðàäèåíò_40-5" x1="98.21" y1="-20.64" x2="291.16" y2="260.49" xlink:href="#Áåçûìÿííûé_ãðàäèåíò_40"/><linearGradient id="Áåçûìÿííûé_ãðàäèåíò_40-6" x1="266.15" y1="-135.83" x2="459.03" y2="145.2" xlink:href="#Áåçûìÿííûé_ãðàäèåíò_40"/></defs><title>Fichier 1</title><g id="Calque_2" data-name="Calque 2"><g id="Calque_1-2" data-name="Calque 1"><path class="cls-1" d="M4.77,184.7a35.07,35.07,0,0,1,21.61,11.6,34.61,34.61,0,0,1,8.11,18.34H336.72a35.27,35.27,0,0,1,11.59-21.71,34.8,34.8,0,0,1,18.4-8.11V36.37a35,35,0,0,1-21.61-11.6A34.61,34.61,0,0,1,337,6.43H34.76A35.29,35.29,0,0,1,23.17,28.14a34.8,34.8,0,0,1-18.4,8.11Z"/><path class="cls-1" d="M.45,32.26V188.63l2,.16a30.9,30.9,0,0,1,20.68,10.34A30.62,30.62,0,0,1,30.37,217l.13,2H340.65l.15-2.07a31,31,0,0,1,10.33-20.69A30.55,30.55,0,0,1,369,188.94l2-.13V32.44l-2-.16A30.92,30.92,0,0,1,348.36,22a30.57,30.57,0,0,1-7.25-17.89L341,2.11H30.83l-.16,2.07A30.89,30.89,0,0,1,20.34,24.87,30.53,30.53,0,0,1,2.47,32.13Z"/><path class="cls-2" d="M331.78,207.74H42.37l-.26-.84a47.92,47.92,0,0,0-13.89-21.58,47.12,47.12,0,0,0-15.67-9.17l-.8-.28V42.37l.84-.26A47.92,47.92,0,0,0,34.17,28.22a46.93,46.93,0,0,0,9.16-15.67l.28-.8H333l.27.84a47.83,47.83,0,0,0,13.89,21.58,47.12,47.12,0,0,0,15.67,9.17l.79.27V177.12l-.83.26a48,48,0,0,0-21.59,13.89,47.1,47.1,0,0,0-9.16,15.67ZM44.12,205.35h286a49.27,49.27,0,0,1,9.34-15.66,50.26,50.26,0,0,1,21.82-14.32V45.3A49.27,49.27,0,0,1,345.6,36a50.26,50.26,0,0,1-14.32-21.82H45.3A49.38,49.38,0,0,1,36,29.8,50.26,50.26,0,0,1,14.14,44.12V174.19a49.53,49.53,0,0,1,15.66,9.34A50.26,50.26,0,0,1,44.12,205.35Z"/><path class="cls-3" d="M360,201.67a21,21,0,0,1,13.23-4.9v20.46H352.75A21.52,21.52,0,0,1,360,201.67Z"/><path class="cls-4" d="M17.74,204.15a21,21,0,0,1,4.9,13.23H2.19V196.92A21.52,21.52,0,0,1,17.74,204.15Z"/><path class="cls-5" d="M15.42,17.82a21,21,0,0,1-13.23,4.9V2.26H22.64A21.49,21.49,0,0,1,15.42,17.82Z"/><path class="cls-6" d="M30.44,219.49l-.13-2A30.93,30.93,0,0,0,23,199.42,31.35,31.35,0,0,0,2,189l-2-.16V30.52l2-.13A31,31,0,0,0,20.15,23,31.26,31.26,0,0,0,30.61,2.09L30.77,0H345l.13,2a31,31,0,0,0,7.35,18.11,31.36,31.36,0,0,0,20.94,10.46l2,.16V189l-2,.14a30.93,30.93,0,0,0-18.1,7.35,31.33,31.33,0,0,0-10.47,20.94l-.16,2.09ZM4.37,184.82a35.5,35.5,0,0,1,21.9,11.73,35.12,35.12,0,0,1,8.21,18.57H340.65a35.64,35.64,0,0,1,11.73-22A35.14,35.14,0,0,1,371,184.94V34.68a35.58,35.58,0,0,1-21.89-11.74,35,35,0,0,1-8.21-18.57H34.75A35.66,35.66,0,0,1,23,26.34,35.19,35.19,0,0,1,4.37,34.56Z"/><path class="cls-7" d="M357.65,15.35a21,21,0,0,1-4.9-13.24h20.46V22.57A21.55,21.55,0,0,1,357.65,15.35Z"/></g></g></svg>